<?xml version="1.0" encoding="UTF-8" standalone="no"?>
<svg xmlns:svg="http://www.w3.org/2000/svg" xmlns="http://www.w3.org/2000/svg" version="1.0" width="20" height="20" id="svg2">
<defs id="defs4" />
<g id="layer1">
<rect width="1.5152274" height="3.7880685" x="-15.826927" y="-6.3802438" transform="matrix(-0.9023,-0.431108,-0.431108,0.9023,0,0)" style="opacity:1;fill:#343434;fill-opacity:1;fill-rule:nonzero;stroke:black;stroke-width:0.69999927;stroke-linejoin:round;stroke-miterlimit:4;stroke-dasharray:none;stroke-dashoffset:0;stroke-opacity:1" id="rect3687" />
<rect width="1.5152289" height="3.7880721" x="2.0035188" y="2.1389279" transform="matrix(0.9023,-0.431108,0.431108,0.9023,0,0)" style="opacity:1;fill:#343434;fill-opacity:1;fill-rule:nonzero;stroke:black;stroke-width:0.69999999;stroke-linejoin:round;stroke-miterlimit:4;stroke-dasharray:none;stroke-dashoffset:0;stroke-opacity:1" id="rect3685" />
<rect width="15.745706" height="15.998243" x="2.1024036" y="2.7201016" style="opacity:1;fill:#8e8e8e;fill-opacity:1;fill-rule:nonzero;stroke:black;stroke-width:1;stroke-linejoin:round;stroke-miterlimit:4;stroke-dasharray:none;stroke-dashoffset:0;stroke-opacity:1" id="rect1919" />
<path d="M 9.7858527 6.6470461 A 2.6832178 2.493814 0 1 1  4.4194171,6.6470461 A 2.6832178 2.493814 0 1 1  9.7858527 6.6470461 z" transform="translate(-0.505076,0.820749)" style="opacity:1;fill:#f98a75;fill-opacity:1;fill-rule:nonzero;stroke:black;stroke-width:0.60000002;stroke-linejoin:round;stroke-miterlimit:4;stroke-dasharray:none;stroke-dashoffset:0;stroke-opacity:1" id="path2794" />
<path d="M 9.7858527 6.6470461 A 2.6832178 2.493814 0 1 1  4.4194171,6.6470461 A 2.6832178 2.493814 0 1 1  9.7858527 6.6470461 z" transform="translate(6.439723,0.820749)" style="opacity:1;fill:#f98a75;fill-opacity:1;fill-rule:nonzero;stroke:black;stroke-width:0.60000002;stroke-linejoin:round;stroke-miterlimit:4;stroke-dasharray:none;stroke-dashoffset:0;stroke-opacity:1" id="path3669" />
<rect width="11.443193" height="4.6877975" ry="0" x="4.4430628" y="12.194964" style="opacity:1;fill:#eee;fill-opacity:1;fill-rule:nonzero;stroke:black;stroke-width:0.77700001;stroke-linejoin:round;stroke-miterlimit:4;stroke-dasharray:none;stroke-dashoffset:0;stroke-opacity:1" id="rect3679" />
<path d="M 7.1973367 6.0157008 A 0.53664356 0.53664356 0 1 1  6.1240496,6.0157008 A 0.53664356 0.53664356 0 1 1  7.1973367 6.0157008 z" transform="translate(0,1.325825)" style="opacity:1;fill:black;fill-opacity:1;fill-rule:nonzero;stroke:black;stroke-width:0.60000002;stroke-linejoin:round;stroke-miterlimit:4;stroke-dasharray:none;stroke-dashoffset:0;stroke-opacity:1" id="path3681" />
<path d="M 7.1973367 6.0157008 A 0.53664356 0.53664356 0 1 1  6.1240496,6.0157008 A 0.53664356 0.53664356 0 1 1  7.1973367 6.0157008 z" transform="translate(7.071068,1.325825)" style="opacity:1;fill:black;fill-opacity:1;fill-rule:nonzero;stroke:black;stroke-width:0.60000002;stroke-linejoin:round;stroke-miterlimit:4;stroke-dasharray:none;stroke-dashoffset:0;stroke-opacity:1" id="path3683" />
<path d="M 4.4194174,14.381026 L 15.657364,14.381026" style="fill:none;fill-opacity:0.75;fill-rule:evenodd;stroke:black;stroke-width:0.77700001;stroke-linecap:butt;stroke-linejoin:miter;stroke-miterlimit:4;stroke-dasharray:none;stroke-opacity:1" id="path3689" />
<path d="M 10.985409,12.171318 L 10.985409,16.590734" style="fill:none;fill-opacity:0.75;fill-rule:evenodd;stroke:black;stroke-width:0.77700001;stroke-linecap:butt;stroke-linejoin:miter;stroke-miterlimit:4;stroke-dasharray:none;stroke-opacity:1" id="path3691" />
<path d="M 8.7125658,12.171318 L 8.7125658,16.590734" style="fill:none;fill-opacity:0.75;fill-rule:evenodd;stroke:black;stroke-width:0.77700001;stroke-linecap:butt;stroke-linejoin:miter;stroke-miterlimit:4;stroke-dasharray:none;stroke-opacity:1" id="path3693" />
<path d="M 13.258253,12.171318 L 13.258253,16.590734" style="fill:none;fill-opacity:0.75;fill-rule:evenodd;stroke:black;stroke-width:0.77700001;stroke-linecap:butt;stroke-linejoin:miter;stroke-miterlimit:4;stroke-dasharray:none;stroke-opacity:1" id="path3695" />
<path d="M 6.5028571,12.171318 L 6.5028571,16.590734" style="fill:none;fill-opacity:0.75;fill-rule:evenodd;stroke:black;stroke-width:0.77700001;stroke-linecap:butt;stroke-linejoin:miter;stroke-miterlimit:4;stroke-dasharray:none;stroke-opacity:1" id="path3697" />
</g>
</svg> 